<svg width="361" height="360" viewBox="0 0 361 360" fill="none" xmlns="http://www.w3.org/2000/svg">
<path d="M335.538 227.285C337.874 227.709 340.275 228.121 342.748 228.525L342.503 211.268C340.296 209.504 337.861 207.993 335.246 206.787L335.538 227.285Z" fill="#FF7B34"/>
<path fill-rule="evenodd" clip-rule="evenodd" d="M336.019 261.188C338.357 261.388 340.753 261.563 343.219 261.717L342.984 245.159C342.948 245.157 342.912 245.155 342.877 245.153C342.798 245.148 342.72 245.143 342.641 245.138C342.463 245.127 342.285 245.116 342.107 245.104C340.014 244.966 337.904 244.788 335.783 244.569L336.019 261.188Z" fill="#FF7B34"/>
<path d="M336.468 292.818C338.797 292.961 341.195 293.092 343.666 293.212L343.466 279.085C340.989 279 338.592 278.876 336.268 278.715L336.468 292.818Z" fill="#FF7B34"/>
<path d="M336.954 327.038C339.285 327.094 341.681 327.124 344.148 327.128L343.88 308.267C341.453 308.244 339.055 308.199 336.685 308.131L336.954 327.038Z" fill="#FF7B34"/>
<path fill-rule="evenodd" clip-rule="evenodd" d="M50.2459 22.3897C25.7221 17.6013 4.13904 31.7928 4.57184 62.2746L5.78456 147.685C6.03017 164.984 20.2709 178.923 37.5901 180.203C87.751 183.913 180.53 198.933 181.387 259.28C181.772 286.441 200.779 304.421 226.139 316.319C231.915 319.029 238.02 321.423 244.309 323.539L244.001 301.833L260.418 309.447L260.686 328.359C265.549 329.606 270.446 330.715 275.317 331.701L275.088 315.624C279.252 317.216 283.399 318.645 287.629 319.909L287.828 333.988C291.593 334.606 295.308 335.156 298.945 335.644L298.762 322.8C302.127 323.542 305.588 324.19 309.189 324.742L309.362 336.912C312.961 337.305 316.444 337.64 319.776 337.926L319.607 326.033C322.293 326.291 325.065 326.504 327.936 326.671L328.103 338.429C331.265 338.348 334.285 337.752 337.091 336.721L336.954 327.038C333.836 326.962 330.835 326.84 327.936 326.671L327.667 307.743C330.631 307.916 333.635 308.043 336.685 308.131L336.468 292.818C333.342 292.626 330.339 292.412 327.446 292.172L327.243 277.865C330.13 278.213 333.133 278.497 336.268 278.715L336.019 261.188C332.914 260.923 329.913 260.614 326.993 260.249L326.753 243.391C329.779 243.868 332.792 244.259 335.783 244.569L335.538 227.285C332.417 226.718 329.411 226.131 326.499 225.512L326.19 203.692C324.235 203.109 322.218 202.515 320.15 201.907L320.111 201.896L320.106 201.894L320.094 201.891L318.204 201.335L317.835 201.226L318.153 223.584C314.559 222.681 311.093 221.709 307.711 220.646L307.391 198.093C303.957 197.035 300.46 195.919 296.944 194.73L297.26 216.964C293.513 215.493 289.815 213.873 286.097 212.069L285.794 190.697C281.538 189.042 277.325 187.252 273.238 185.298L273.522 205.322C268.803 202.558 263.939 199.464 258.807 195.978L258.538 177.066C251.224 172.217 246.047 166.934 241.994 160.456L242.353 185.737L232.979 160.584C232.979 160.584 235.291 146.49 233.8 141.892C232.702 138.508 231.649 134.864 230.583 130.918C214.785 72.3954 144.3 40.7544 50.2459 22.3897ZM242.617 204.377L242.353 185.737L258.807 195.978L259.075 214.889L242.617 204.377ZM242.898 224.103L242.617 204.377L231.868 185.886L230.987 205.926L242.898 224.103ZM259.344 233.801L242.898 224.103L243.197 245.192L229.984 228.784L229.173 247.237L243.432 261.751L243.713 281.511L228.277 267.636L227.208 291.978L244.001 301.833L243.713 281.511L260.149 290.536L260.418 309.447C265.434 311.723 270.273 313.783 275.088 315.624L274.827 297.191C278.975 298.796 283.148 300.184 287.365 301.382L287.629 319.909C291.258 320.994 294.948 321.958 298.762 322.8L298.497 304.095C301.931 304.801 305.402 305.399 308.922 305.904L309.189 324.742C312.53 325.255 315.991 325.685 319.607 326.033L319.339 307.12C322.081 307.373 324.856 307.578 327.667 307.743L327.446 292.172C324.563 291.932 321.791 291.667 319.115 291.37L318.906 276.633C321.581 277.105 324.354 277.516 327.243 277.865L326.993 260.249C324.144 259.893 321.372 259.484 318.656 259.01L318.412 241.862C321.196 242.445 323.979 242.954 326.753 243.391L326.499 225.512C323.632 224.902 320.856 224.262 318.153 223.584L318.412 241.862C314.928 241.133 311.444 240.288 307.977 239.322L307.711 220.646C304.152 219.528 300.686 218.309 297.26 216.964L297.53 236.018C293.761 234.677 290.034 233.184 286.374 231.531L286.097 212.069C281.961 210.061 277.801 207.828 273.522 205.322L273.802 225.048C268.659 222.034 263.724 218.654 259.075 214.889L259.344 233.801ZM274.055 242.813C269.373 240.189 264.504 237.202 259.344 233.801L259.612 252.712L243.197 245.192L243.432 261.751L259.881 271.624L260.149 290.536C265.028 293.085 269.91 295.29 274.827 297.191L274.581 279.867C278.665 281.798 282.809 283.456 287.131 284.884L287.365 301.382C291.039 302.425 294.745 303.324 298.497 304.095L298.268 287.972C301.592 288.733 305.054 289.397 308.696 289.978L308.922 305.904C312.346 306.394 315.816 306.796 319.339 307.12L319.115 291.37C315.472 290.967 312.009 290.507 308.696 289.978L308.474 274.381C311.796 275.236 315.259 275.99 318.906 276.633L318.656 259.01C315.1 258.39 311.639 257.66 308.225 256.794L307.977 239.322C304.471 238.345 300.983 237.245 297.53 236.018L297.781 253.664C294.087 252.38 290.389 250.903 286.625 249.2L286.374 231.531C282.078 229.592 277.875 227.435 273.802 225.048L274.055 242.813ZM274.309 260.699C269.589 258.236 264.82 255.595 259.81 252.822L259.807 252.82L259.805 252.819L259.612 252.712L259.881 271.624C264.831 274.818 269.662 277.541 274.581 279.867L274.309 260.699ZM286.875 266.804L287.131 284.884C290.7 286.062 294.39 287.084 298.268 287.972L298.03 271.224C301.379 272.389 304.842 273.446 308.474 274.381L308.225 256.794C304.711 255.903 301.248 254.869 297.781 253.664L298.03 271.224C294.188 269.887 290.497 268.408 286.875 266.804ZM286.875 266.804L286.625 249.2C282.54 247.351 278.378 245.236 274.055 242.813L274.309 260.699C278.492 262.883 282.637 264.928 286.875 266.804ZM344.148 327.128L344.229 332.844C346.409 331.214 348.352 329.275 350.004 327.09C348.007 327.119 346.056 327.131 344.148 327.128ZM343.88 308.267L343.666 293.212C347.553 293.402 351.622 293.567 355.893 293.714L356.099 308.231C351.939 308.29 347.869 308.307 343.88 308.267ZM343.219 261.717L343.466 279.085C347.337 279.219 351.402 279.258 355.687 279.198L355.447 262.322C351.174 262.157 347.111 261.962 343.219 261.717ZM342.984 245.159L342.748 228.525C346.462 229.132 350.339 229.721 354.408 230.305C354.82 232.261 355.049 234.275 355.078 236.33L355.208 245.447C351.186 245.504 347.064 245.409 342.877 245.153L342.984 245.159ZM145.497 75.3414C139.558 60.3537 94.2545 50.7696 60.7756 43.5576C57.723 42.9001 54.8165 42.274 52.108 41.6802C39.2575 38.8633 27.4436 48.8364 27.6297 61.943L28.4861 122.256C28.7459 140.557 42.2284 143.47 61.2371 146.898C85.5693 151.287 123.078 156.61 146.852 170.802L145.497 75.3414Z" fill="#FF7B34"/>
</svg>
